<svg id="Layer_1" data-name="Layer 1" xmlns="http://www.w3.org/2000/svg" viewBox="0 0 206.93 182.12"><defs><style>.cls-1{fill:#e6e6e6;}.cls-2{fill:#fff;opacity:0.3;}</style></defs><path class="cls-1" d="M794.12,466c5.21,10.34,13.78,19.76,24.77,27.25,13.94,9.5,30.5,15.17,46.51,20.64,5.18,1.78,10.54,3.61,15.76,5.55,26.32,9.81,46.21,22.58,59.5,38.15,3.13-2.3,6.11-4.63,9-7-7.6-21.43-25.46-41.08-53.38-58.62-4.63-2.91-9.47-5.77-14.14-8.54-15-8.85-30.44-18-42.82-30.82-10.06-10.42-17.13-22.44-20.44-34.76-.43-1.57-.77-3.13-1-4.68-9.08,5.61-17.14,14.28-23,25.2a78.78,78.78,0,0,0-5.43,12.82A49.81,49.81,0,0,0,794.12,466Z" transform="translate(-785.37 -406.04)"/><path class="cls-1" d="M982.85,438.43c-10.62-19.79-28.44-32.2-46.51-32.39h-.43c-12.64,0-30.52,5.68-47.08,31.18C872.28,411.72,854.4,406,841.76,406h-.44a43.54,43.54,0,0,0-17,3.75,49.8,49.8,0,0,0,1.26,6.3c3,11.18,9.48,22.15,18.72,31.72,11.72,12.13,26.78,21,41.34,29.66,4.72,2.79,9.59,5.67,14.31,8.63,28.24,17.75,46.75,37.75,55.32,59.68a141.87,141.87,0,0,0,24.8-28.35C998.32,489.36,993.47,458.22,982.85,438.43Z" transform="translate(-785.37 -406.04)"/><path class="cls-1" d="M878.71,526c-5.13-1.91-10.44-3.72-15.58-5.48-16.45-5.63-33.46-11.45-48.18-21.49-12-8.15-21.34-18.48-27.08-29.88-.64-1.26-1.22-2.53-1.74-3.8a75.35,75.35,0,0,0,11.44,52c16.69,25.71,45.86,48.51,89.18,69.71l2.08,1,2.08-1a337.25,337.25,0,0,0,44-25.4Q916.15,540,878.71,526Z" transform="translate(-785.37 -406.04)"/><path class="cls-2" d="M886.76,587.14l2.08,1,1-.51q-2.25-1.21-4.4-2.58c-12.77-8.1-23.18-19.39-32.94-31-10.7-12.68-20.89-26-28.33-40.78-1.15-2.27-2.23-4.6-3.25-7q-1-2.3-1.86-4.63c-1.4-.86-2.78-1.74-4.14-2.67-12-8.15-21.34-18.48-27.08-29.88-.64-1.26-1.21-2.52-1.74-3.79l-.06.51c-.1.7-.18,1.4-.25,2.1l-.09.9c-.07.69-.12,1.39-.17,2.09l-.06.84c0,.91-.09,1.81-.11,2.72v.21c0,1,0,2,0,2.94,0,.31,0,.62,0,.93,0,.67,0,1.35.08,2,0,.39,0,.77.08,1.15,0,.63.09,1.25.15,1.87l.12,1.19c.08.67.17,1.34.26,2,0,.33.09.67.14,1,.15,1,.31,1.91.5,2.87.08.4.17.8.25,1.19.13.61.26,1.22.4,1.82s.23.92.35,1.38.29,1.1.44,1.65.27.95.42,1.43.35,1.11.53,1.66.3.92.46,1.38c.3.84.61,1.68.95,2.52.2.53.43,1.06.65,1.59s.48,1.14.73,1.7.46,1,.69,1.46.49,1,.75,1.55.51,1,.77,1.48.57,1,.86,1.56.53,1,.81,1.43.75,1.24,1.14,1.86c.21.33.41.67.63,1C814.26,543.14,843.43,565.94,886.76,587.14Z" transform="translate(-785.37 -406.04)"/><path class="cls-2" d="M794.12,466A72.43,72.43,0,0,0,815.65,491a71.11,71.11,0,0,1,8.91-58.55,71.46,71.46,0,0,1-5.71-14.5c-.43-1.57-.76-3.13-1-4.68l-.22.14c-.43.27-.86.54-1.29.83l-.4.27c-.41.27-.81.55-1.21.84l-.43.31c-.39.28-.78.57-1.16.87l-.45.34-1.12.91-.44.36c-.38.31-.75.64-1.12,1-.14.12-.28.23-.41.36l-1.23,1.13-.27.25c-.47.46-.95.93-1.42,1.41l-.64.67-.75.79-.75.84-.6.67-.8.94-.51.62c-.28.34-.55.68-.82,1l-.45.57-.83,1.11-.39.54c-.29.39-.57.79-.85,1.19-.11.16-.22.31-.32.47-.3.43-.59.87-.88,1.32l-.21.33c-.32.49-.64,1-1,1.49v0c-.72,1.17-1.41,2.38-2.07,3.61l-.31.59-.94,1.85c-.16.33-.32.66-.47,1-.39.82-.77,1.65-1.14,2.51-.09.21-.17.42-.26.64q-.5,1.19-1,2.4c-.09.22-.17.44-.25.66-.37,1-.71,2-1,3a1.87,1.87,0,0,0-.07.22A50.08,50.08,0,0,0,794.12,466Z" transform="translate(-785.37 -406.04)"/><path class="cls-2" d="M825.61,416.09a63.13,63.13,0,0,0,3.49,9.68,91.65,91.65,0,0,1,18.8-18.63l.75-.53h0c-1.18-.19-2.34-.33-3.46-.42H845l-1.38-.09h-.36l-1.47,0h-.49c-.64,0-1.28,0-1.92.07l-.62.05-1.38.12-.65.08c-.5.06-1,.13-1.5.21l-.46.08c-.66.11-1.32.24-2,.38l-.24.06c-.58.13-1.16.28-1.73.43l-.49.14c-.51.14-1,.3-1.55.47l-.43.13c-1.32.44-2.62.94-3.92,1.5l-.07,0A49.8,49.8,0,0,0,825.61,416.09Z" transform="translate(-785.37 -406.04)"/></svg>