<svg id="Layer_1" data-name="Layer 1" xmlns="http://www.w3.org/2000/svg" xmlns:xlink="http://www.w3.org/1999/xlink" viewBox="0 0 138.27 313.29"><defs><style>.cls-1{fill:url(#linear-gradient);}.cls-2{fill:#47b5ff;}.cls-3{mask:url(#mask);}</style><linearGradient id="linear-gradient" x1="680.49" y1="721.98" x2="680.49" y2="559.39" gradientUnits="userSpaceOnUse"><stop offset="0.54"/><stop offset="0.65" stop-color="#030303"/><stop offset="0.74" stop-color="#0e0e0e"/><stop offset="0.82" stop-color="#1f1f1f"/><stop offset="0.9" stop-color="#373737"/><stop offset="0.98" stop-color="#575757"/><stop offset="1" stop-color="#616161"/></linearGradient><mask id="mask" x="-37.36" y="156.35" width="190.86" height="162.58" maskUnits="userSpaceOnUse"><g transform="translate(-622.42 -403.04)"><rect class="cls-1" x="585.06" y="559.39" width="190.86" height="162.58"/></g></mask></defs><path class="cls-2" d="M737.89,533.25a6.57,6.57,0,0,1-2.78-1.89,35.59,35.59,0,0,1-2.85,4.19,40,40,0,0,1-3.14,3.53A36.74,36.74,0,0,1,716,547.39a46.25,46.25,0,0,1-15.57,2.72,35,35,0,0,1-12.35-2c-.93-.34-1.84-.7-2.74-1.11-.72-.32-1.45-.67-2.18-1.06a69.72,69.72,0,0,0,7.3-10.73,109.26,109.26,0,0,0,7.19-15.83c1-2.65,1.89-5.4,2.72-8.2.42-1.38.81-2.77,1.19-4.17l.53-2.11.42-1.82.19-.82-.52-.8a3.39,3.39,0,0,0-1.54-1.17l-.2-.09-1.67-.34h-.23a3.36,3.36,0,0,0-1.69.35,2.25,2.25,0,0,0-.81.76,2.1,2.1,0,0,0-.32.82l-.35,1.47-.5,2c-.34,1.32-.71,2.64-1.1,4-.78,2.65-1.65,5.27-2.58,7.8a102.62,102.62,0,0,1-6.7,14.86,61.81,61.81,0,0,1-7.14,10.39,58.52,58.52,0,0,1-5-4.2,114.09,114.09,0,0,1-10.94-12.22l-1.76-2.2c-1.16-1.47-2.34-2.95-3.54-4.41a55.44,55.44,0,0,0-6.12-6.55,17.54,17.54,0,0,0-4.27-2.82c-.26-.12-.54-.23-.82-.33a10.68,10.68,0,0,0-5.13-.48,17.49,17.49,0,0,0-9.07,4.74,26,26,0,0,0-8.23,17,21.42,21.42,0,0,0,1.67,9.75,24.07,24.07,0,0,0,5.6,7.93c3.91,3.74,8.84,6.58,15.52,8.94l.48.18A32,32,0,0,0,664,558.86a33.76,33.76,0,0,0,14.81-8.29,44.18,44.18,0,0,0,4.07,2c.91.4,1.84.77,2.77,1.1A41.15,41.15,0,0,0,700.55,556,51.61,51.61,0,0,0,718,552.77a42.17,42.17,0,0,0,19.13-14.56,37.84,37.84,0,0,0,2.93-4.58A7.13,7.13,0,0,1,737.89,533.25Zm-75.53,19a25.41,25.41,0,0,1-14.67-1.09l-.38-.14c-5.58-2-9.81-4.39-12.94-7.37a17.74,17.74,0,0,1-4.09-5.73,15,15,0,0,1-1.17-6.72,19.42,19.42,0,0,1,6.06-12.63,11.51,11.51,0,0,1,5.58-3.11,4.12,4.12,0,0,1,2,.17l.32.13a11.06,11.06,0,0,1,2.7,1.79,49.85,49.85,0,0,1,5.4,5.74c1.15,1.38,2.29,2.8,3.43,4.22l1.85,2.3a117.94,117.94,0,0,0,11.64,12.79,62.5,62.5,0,0,0,4.8,4A26,26,0,0,1,662.36,552.28Z" transform="translate(-622.42 -403.04)"/><path class="cls-2" d="M697.3,483.63a21.5,21.5,0,0,1-8.75-6.24,28.73,28.73,0,0,1-5.95-11.64c-1.78-7.06-1.81-14.86-.12-24.58a104.46,104.46,0,0,1,2.84-11.73c.58-1.92,1.22-3.84,1.89-5.7a49.2,49.2,0,0,1,2.36-5.71,25.7,25.7,0,0,1,8.13-10,15.75,15.75,0,0,1,13.49-2.36l2.09.64-1.9,5.08-1.87-.62a9.34,9.34,0,0,0-4.46-.23,10.65,10.65,0,0,0-4.32,1.84,20.73,20.73,0,0,0-6.36,8.07A65,65,0,0,0,690.6,431a99,99,0,0,0-2.44,11.12c-1.34,8.75-1.18,15.95.48,22a22.72,22.72,0,0,0,4.69,9.06c2,2.32,4.64,3.88,7.46,5.53l2.53,1.5-1.56,4.38-1.68-.25A16.44,16.44,0,0,1,697.3,483.63Z" transform="translate(-622.42 -403.04)"/><path class="cls-2" d="M712,488.77a17.56,17.56,0,0,1-2.26-1l-1.56-.82,1.6-4.54,1.74.34c3.58.7,7.07,1.27,10.41.68a22.7,22.7,0,0,0,9.41-4.12c5.1-3.67,9.75-9.17,14.22-16.84a99.92,99.92,0,0,0,5.08-10.2,64.2,64.2,0,0,0,3.73-10.59,20.78,20.78,0,0,0,.14-10.29,10.89,10.89,0,0,0-2.18-4.13,9.42,9.42,0,0,0-3.61-2.64l-1.85-.7,1.73-5.14,2,.81a15.75,15.75,0,0,1,9,10.34,25.77,25.77,0,0,1,0,12.93,48.68,48.68,0,0,1-1.77,5.93c-.65,1.86-1.37,3.75-2.13,5.61a104.1,104.1,0,0,1-5.2,10.87c-4.83,8.6-9.78,14.63-15.58,19A29,29,0,0,1,723,489.52,21.76,21.76,0,0,1,712,488.77Z" transform="translate(-622.42 -403.04)"/><path class="cls-2" d="M707.27,406.06c.7-2,2-3.31,3-3l5.54,3.74c.6.22.71,1.43.26,2.71l-.41,1.16c-.46,1.28-1.31,2.14-1.91,1.93l-6.65-.58c-1-.33-1.16-2.22-.46-4.19Z" transform="translate(-622.42 -403.04)"/><path class="cls-2" d="M753.52,422.46c.71-2,.47-3.87-.52-4.22l-6.87-.65c-.62-.22-1.49.64-1.94,1.92l-.41,1.16c-.46,1.28-.33,2.49.29,2.71l5.76,3.82c1,.36,2.36-1,3.06-2.95Z" transform="translate(-622.42 -403.04)"/><path class="cls-2" d="M701.65,503.47a9.76,9.76,0,0,1-5.27-1.87c-1.2-.43-2-17.22-1.49-20.85.36-2.78,3.84-4,6.48-3.09l11.49,4.08c2.64.93,4.55,4.09,3.08,6.47C714,491.33,702.86,503.9,701.65,503.47Z" transform="translate(-622.42 -403.04)"/><path class="cls-2" d="M744,516a11.62,11.62,0,0,0-7.77,21.91l.9.27A11.62,11.62,0,0,0,744,516Zm2.38,13.17a6.67,6.67,0,0,1-6.32,4.43,7.13,7.13,0,0,1-2.17-.38,6.57,6.57,0,0,1-2.78-1.89,6.65,6.65,0,1,1,11.27-2.16Z" transform="translate(-622.42 -403.04)"/><g class="cls-3"><path class="cls-2" d="M740.29,585.74a37.07,37.07,0,0,0-2.93-4.58,42.26,42.26,0,0,0-19.13-14.57,51.81,51.81,0,0,0-17.45-3.26,41.16,41.16,0,0,0-14.93,2.33c-.93.33-1.86.7-2.77,1.1a44.18,44.18,0,0,0-4.07,2,33.66,33.66,0,0,0-14.81-8.29A31.93,31.93,0,0,0,646,561.73l-.49.17c-6.67,2.37-11.61,5.2-15.52,9a24.07,24.07,0,0,0-5.6,7.93,21.39,21.39,0,0,0-1.67,9.75,26.07,26.07,0,0,0,8.23,17A17.47,17.47,0,0,0,640,610.3a10.55,10.55,0,0,0,5.13-.47c.28-.1.56-.22.83-.34a17.17,17.17,0,0,0,4.26-2.81,55.44,55.44,0,0,0,6.12-6.55c1.21-1.47,2.38-2.94,3.54-4.41l1.76-2.21a117.18,117.18,0,0,1,10.94-12.22,62,62,0,0,1,5-4.19,60.83,60.83,0,0,1,7.14,10.39,102.14,102.14,0,0,1,6.7,14.86c.93,2.53,1.8,5.15,2.58,7.79.39,1.31.76,2.63,1.1,4l.5,2,.35,1.48a2.26,2.26,0,0,0,1.13,1.58,3.36,3.36,0,0,0,1.69.35H699l1.68-.35.19-.08a3.39,3.39,0,0,0,1.54-1.17l.52-.8-.19-.82-.42-1.82-.53-2.11c-.38-1.41-.77-2.8-1.18-4.17-.84-2.8-1.76-5.56-2.73-8.21a109.12,109.12,0,0,0-7.19-15.82,68.54,68.54,0,0,0-7.3-10.73c.73-.39,1.46-.74,2.18-1.07.91-.4,1.81-.77,2.74-1.1a34.57,34.57,0,0,1,12.36-2A46.19,46.19,0,0,1,716.22,572a36.57,36.57,0,0,1,13.13,8.31,37.21,37.21,0,0,1,3.14,3.53,36.08,36.08,0,0,1,2.86,4.19,6.39,6.39,0,0,1,2.77-1.89A6.57,6.57,0,0,1,740.29,585.74Zm-67.15-13c-1.61,1.22-3.22,2.58-4.8,4a122,122,0,0,0-11.64,12.79l-1.85,2.31c-1.13,1.42-2.28,2.84-3.43,4.21a50,50,0,0,1-5.4,5.75,11.53,11.53,0,0,1-2.69,1.79l-.33.12a3.9,3.9,0,0,1-2,.17,11.42,11.42,0,0,1-5.58-3.1,19.45,19.45,0,0,1-6.06-12.63,15,15,0,0,1,1.18-6.72,17.35,17.35,0,0,1,4.08-5.73c3.13-3,7.36-5.39,12.94-7.37l.39-.14a25.47,25.47,0,0,1,14.66-1.1A26,26,0,0,1,673.14,572.69Z" transform="translate(-622.42 -403.04)"/><path class="cls-2" d="M697.53,635.74a21.57,21.57,0,0,0-8.75,6.23,28.89,28.89,0,0,0-5.95,11.65c-1.77,7.06-1.81,14.86-.12,24.57a105.6,105.6,0,0,0,2.84,11.73c.58,1.92,1.22,3.84,1.89,5.71a51,51,0,0,0,2.36,5.71,25.7,25.7,0,0,0,8.13,10,15.8,15.8,0,0,0,13.5,2.36l2.08-.64L711.62,708l-1.88.62a9.33,9.33,0,0,1-4.46.23A10.94,10.94,0,0,1,701,707,21,21,0,0,1,694.6,699a64.38,64.38,0,0,1-3.76-10.6,99.07,99.07,0,0,1-2.45-11.12c-1.34-8.75-1.18-16,.49-22a22.62,22.62,0,0,1,4.68-9.07c2-2.31,4.65-3.87,7.46-5.52l2.53-1.5L702,634.77l-1.68.26A16.55,16.55,0,0,0,697.53,635.74Z" transform="translate(-622.42 -403.04)"/><path class="cls-2" d="M712.26,630.6a16.8,16.8,0,0,0-2.25,1l-1.57.83,1.6,4.53,1.74-.33c3.58-.7,7.07-1.28,10.41-.68a22.7,22.7,0,0,1,9.41,4.12c5.1,3.66,9.76,9.17,14.22,16.84a98.9,98.9,0,0,1,5.08,10.2,63.88,63.88,0,0,1,3.73,10.59,20.73,20.73,0,0,1,.14,10.28,11,11,0,0,1-2.18,4.14,9.35,9.35,0,0,1-3.61,2.64l-1.85.7,1.73,5.13,2-.81a15.73,15.73,0,0,0,9-10.33,25.77,25.77,0,0,0,0-12.93,49.31,49.31,0,0,0-1.77-5.94c-.65-1.85-1.37-3.74-2.13-5.6a104.1,104.1,0,0,0-5.2-10.87c-4.82-8.61-9.77-14.63-15.58-19a28.8,28.8,0,0,0-11.93-5.28A21.76,21.76,0,0,0,712.26,630.6Z" transform="translate(-622.42 -403.04)"/><path class="cls-2" d="M707.5,713.3c.7,2,2,3.31,3,3l5.53-3.75c.6-.21.71-1.42.26-2.7l-.41-1.16c-.46-1.28-1.31-2.14-1.9-1.93l-6.66.57c-1,.34-1.16,2.22-.46,4.2Z" transform="translate(-622.42 -403.04)"/><path class="cls-2" d="M753.75,696.9c.71,2,.47,3.87-.52,4.22l-6.87.66c-.62.22-1.49-.64-1.94-1.92L744,698.7c-.46-1.28-.32-2.5.3-2.72l5.75-3.82c1-.35,2.36,1,3.06,3Z" transform="translate(-622.42 -403.04)"/><path class="cls-2" d="M701.88,615.9a9.8,9.8,0,0,0-5.26,1.86c-1.21.43-2,17.22-1.5,20.86.36,2.78,3.84,4,6.48,3.08l11.49-4.07c2.64-.94,4.55-4.09,3.08-6.47C714.25,628,703.09,615.47,701.88,615.9Z" transform="translate(-622.42 -403.04)"/><path class="cls-2" d="M751.3,588.5a11.63,11.63,0,0,0-13.94-7.34c-.3.08-.6.16-.9.27a11.45,11.45,0,0,0-4,2.39,11.62,11.62,0,1,0,18.81,4.68Zm-8.74,10.15A6.64,6.64,0,0,1,735.35,588a6.39,6.39,0,0,1,2.77-1.89,6.57,6.57,0,0,1,2.17-.38,6.64,6.64,0,0,1,2.27,12.91Z" transform="translate(-622.42 -403.04)"/></g></svg>