<svg id="Layer_1" data-name="Layer 1" xmlns="http://www.w3.org/2000/svg" xmlns:xlink="http://www.w3.org/1999/xlink" viewBox="0 0 174.51 262.91"><defs><style>.cls-1{fill:url(#linear-gradient);}.cls-2{fill:#47b5ff;}.cls-3{mask:url(#mask);}.cls-4{fill:#00baba;}</style><linearGradient id="linear-gradient" x1="959.74" y1="702.16" x2="959.74" y2="539.58" gradientUnits="userSpaceOnUse"><stop offset="0.54"/><stop offset="0.65" stop-color="#030303"/><stop offset="0.74" stop-color="#0e0e0e"/><stop offset="0.82" stop-color="#1f1f1f"/><stop offset="0.9" stop-color="#373737"/><stop offset="0.98" stop-color="#575757"/><stop offset="1" stop-color="#616161"/></linearGradient><mask id="mask" x="-8.29" y="131.25" width="190.86" height="162.58" maskUnits="userSpaceOnUse"><g transform="translate(-872.6 -408.33)"><rect class="cls-1" x="864.31" y="539.58" width="190.86" height="162.58"/></g></mask></defs><path class="cls-2" d="M980.52,408.33H940.69a10.39,10.39,0,0,0-10.39,10.39v20.2a10.4,10.4,0,0,0,10.39,10.38h39.83a10.38,10.38,0,0,0,10.38-10.38v-20.2A10.37,10.37,0,0,0,980.52,408.33ZM984,438.92a3.45,3.45,0,0,1-3.46,3.45H940.69a3.45,3.45,0,0,1-3.45-3.45v-20.2a3.46,3.46,0,0,1,3.45-3.47h39.83a3.46,3.46,0,0,1,3.46,3.47Z" transform="translate(-872.6 -408.33)"/><path class="cls-2" d="M1036.49,429.55H883A10.39,10.39,0,0,0,872.6,440v89.44A10.39,10.39,0,0,0,883,539.79h153.51a10.4,10.4,0,0,0,10.39-10.4V440A10.4,10.4,0,0,0,1036.49,429.55Zm-51.07,59.32H967.35v18.07H953.86V488.87H935.8V475.38h18.06V457.31h13.49v18.07h18.07Z" transform="translate(-872.6 -408.33)"/><g class="cls-3"><path class="cls-4" d="M991.13,660.84v-20.2a10.38,10.38,0,0,0-10.38-10.38H940.93a10.39,10.39,0,0,0-10.39,10.38v20.2a10.38,10.38,0,0,0,10.39,10.39h39.82A10.37,10.37,0,0,0,991.13,660.84Zm-6.92,0a3.46,3.46,0,0,1-3.46,3.47H940.93a3.46,3.46,0,0,1-3.46-3.47v-20.2a3.46,3.46,0,0,1,3.46-3.45h39.82a3.46,3.46,0,0,1,3.46,3.45Z" transform="translate(-872.6 -408.33)"/><path class="cls-2" d="M1047.11,639.62V550.17a10.39,10.39,0,0,0-10.38-10.39H883.21a10.39,10.39,0,0,0-10.38,10.39v89.45A10.39,10.39,0,0,0,883.21,650h153.52A10.39,10.39,0,0,0,1047.11,639.62Zm-61.46-35.44H967.58v18.07H954.1V604.18H936V590.69H954.1V572.62h13.48v18.07h18.07Z" transform="translate(-872.6 -408.33)"/></g></svg>