<svg id="Layer_1" data-name="Layer 1" xmlns="http://www.w3.org/2000/svg" xmlns:xlink="http://www.w3.org/1999/xlink" viewBox="0 0 99.97 329.86"><defs><style>.cls-1{fill:url(#linear-gradient);}.cls-2{fill:#47b5ff;}.cls-3{mask:url(#mask);}</style><linearGradient id="linear-gradient" x1="940.85" y1="782.05" x2="940.85" y2="619.47" gradientUnits="userSpaceOnUse"><stop offset="0.54"/><stop offset="0.65" stop-color="#030303"/><stop offset="0.74" stop-color="#0e0e0e"/><stop offset="0.82" stop-color="#1f1f1f"/><stop offset="0.9" stop-color="#373737"/><stop offset="0.98" stop-color="#575757"/><stop offset="1" stop-color="#616161"/></linearGradient><mask id="mask" x="-64.1" y="164.9" width="190.86" height="164.96" maskUnits="userSpaceOnUse"><g transform="translate(-909.52 -454.57)"><rect class="cls-1" x="845.42" y="619.47" width="190.86" height="162.58"/></g></mask></defs><path class="cls-2" d="M1009.48,454.57l-25,44.17-1.42-.81-13.55,18.2,1.23.7-1.27,2.25-6-3.38a2.62,2.62,0,0,0-3.56,1l-33.05,58.42L920,572.23l-1.25,2.23,6.44,3.65,5.49,3.11L918,603.68l-6.41-1.48-2,3.57,12.14,6.86,12.12,6.87,2-3.58-4.57-4.73L944,588.72l5.49,3.11,6.45,3.65,1.25-2.23-6-4.41,33-58.42a2.59,2.59,0,0,0,.24-2,2.56,2.56,0,0,0-1.23-1.58l-6-3.38,1.28-2.25,1.23.7,8.62-21-1.42-.8,20.37-36Zm-28.87,74.81-32.35,57.19-2.32-1.31-13.26-7.5-2.33-1.32,8.08-14.29,2.33,1.32,10,5.68,1.36-2.42-10-5.68-2.32-1.32,3.21-5.68,2.33,1.31,10,5.69,1.38-2.42L946.7,553l-2.32-1.32,3.21-5.68L960,553l1.37-2.43-12.38-7,3.23-5.68,12.36,7,1.37-2.43-12.37-7,3.22-5.69,12.37,7,1.36-2.41-12.37-7,4.57-8.08,5.07,2.87,7.78,4.4Z" transform="translate(-909.52 -454.57)"/><g class="cls-3"><path class="cls-2" d="M1007.29,774.88l-20.37-36,1.42-.8-8.62-21-1.23.7-1.27-2.25,6-3.38a2.61,2.61,0,0,0,1-3.57l-33-58.42,6-4.41-1.25-2.23-6.45,3.65L944,650.28l-12.72-22.47,4.57-4.73-2-3.58-12.12,6.87-12.14,6.86,2,3.57,6.42-1.48,12.71,22.46-5.49,3.11-6.45,3.65,1.25,2.22,6.89-2.87,33,58.41a2.65,2.65,0,0,0,3.57,1l6-3.38,1.27,2.25-1.23.7L983,741.07l1.42-.81,25,44.17ZM975.5,712.49l-7.77,4.4-5.07,2.87-4.57-8.08,12.36-7-1.35-2.41-12.38,7-3.21-5.69,12.36-7-1.36-2.43-12.37,7-3.22-5.68,12.37-7-1.36-2.43-12.38,7-3.21-5.68,2.32-1.32,10.05-5.68L955.33,678l-10,5.69L943,685l-3.21-5.68,2.32-1.32,10-5.68-1.36-2.42-10,5.68-2.32,1.32-8.08-14.29,2.32-1.32,13.27-7.5,2.32-1.31,32.35,57.19Z" transform="translate(-909.52 -454.57)"/></g></svg>