<svg id="Layer_1" data-name="Layer 1" xmlns="http://www.w3.org/2000/svg" xmlns:xlink="http://www.w3.org/1999/xlink" viewBox="0 0 206.93 182.12"><defs><style>.cls-1{fill:url(#New_Gradient_Swatch_4);}.cls-2{fill:url(#New_Gradient_Swatch_4-2);}.cls-3{fill:url(#New_Gradient_Swatch_4-3);}.cls-4{fill:#fff;opacity:0.3;}</style><linearGradient id="New_Gradient_Swatch_4" x1="1002.27" y1="609.03" x2="855.96" y2="462.71" gradientUnits="userSpaceOnUse"><stop offset="0" stop-color="#00b0e2"/><stop offset="0.82" stop-color="#0062d9"/></linearGradient><linearGradient id="New_Gradient_Swatch_4-2" x1="1038.8" y1="440.45" x2="976.9" y2="502.34" xlink:href="#New_Gradient_Swatch_4"/><linearGradient id="New_Gradient_Swatch_4-3" x1="877.94" y1="607.59" x2="944.04" y2="541.49" xlink:href="#New_Gradient_Swatch_4"/></defs><path class="cls-1" d="M862.87,508.72c5.22,10.34,13.78,19.76,24.77,27.25,14,9.5,30.5,15.17,46.51,20.65,5.18,1.77,10.54,3.6,15.76,5.55,26.33,9.8,46.21,22.58,59.51,38.15q4.68-3.47,9-7c-7.59-21.42-25.45-41.07-53.37-58.62-4.64-2.91-9.47-5.77-14.15-8.54-15-8.85-30.43-18-42.81-30.82-10.06-10.41-17.13-22.43-20.45-34.76-.42-1.57-.76-3.13-1-4.68-9.07,5.61-17.13,14.28-23,25.2a78.91,78.91,0,0,0-5.44,12.83A50.43,50.43,0,0,0,862.87,508.72Z" transform="translate(-854.13 -448.72)"/><path class="cls-2" d="M1051.61,481.11c-10.62-19.79-28.44-32.2-46.51-32.39h-.43c-12.64,0-30.53,5.69-47.08,31.18-16.56-25.5-34.44-31.18-47.08-31.18h-.43a43.81,43.81,0,0,0-17,3.75,49.45,49.45,0,0,0,1.26,6.3c3,11.19,9.48,22.15,18.72,31.72,11.72,12.13,26.78,21,41.35,29.66,4.71,2.79,9.59,5.67,14.3,8.64,28.25,17.75,46.76,37.74,55.33,59.68a141.53,141.53,0,0,0,24.79-28.36C1067.07,532,1062.22,500.9,1051.61,481.11Z" transform="translate(-854.13 -448.72)"/><path class="cls-3" d="M947.47,568.73c-5.13-1.91-10.45-3.73-15.59-5.49-16.44-5.63-33.45-11.45-48.18-21.48-12-8.16-21.33-18.49-27.08-29.89-.64-1.26-1.21-2.53-1.74-3.8a75.3,75.3,0,0,0,11.45,52c16.68,25.71,45.85,48.51,89.18,69.71l2.08,1,2.08-1a336.77,336.77,0,0,0,44-25.4Q984.9,582.72,947.47,568.73Z" transform="translate(-854.13 -448.72)"/><path class="cls-4" d="M955.51,629.82l2.08,1,1-.51c-1.49-.81-3-1.67-4.39-2.58-12.78-8.1-23.19-19.39-32.94-31C910.58,584.12,900.4,570.85,893,556c-1.14-2.27-2.23-4.6-3.24-7-.66-1.52-1.27-3.07-1.86-4.63-1.4-.86-2.79-1.74-4.15-2.66-12-8.16-21.33-18.49-27.08-29.89-.63-1.26-1.21-2.52-1.73-3.79,0,.17,0,.34-.07.51-.09.7-.17,1.4-.25,2.1l-.09.9c-.06.7-.12,1.4-.16,2.1,0,.28,0,.55-.06.84,0,.9-.09,1.81-.11,2.72,0,.07,0,.14,0,.21,0,1,0,1.95,0,2.93l0,.93c0,.68.05,1.35.09,2,0,.38,0,.76.07,1.15,0,.62.1,1.24.16,1.86,0,.4.07.8.12,1.19.07.67.16,1.35.26,2,0,.34.08.67.14,1,.14,1,.31,1.92.5,2.88.07.39.16.79.25,1.19.13.6.26,1.21.4,1.82.11.46.23.92.35,1.38s.29,1.1.44,1.64.27,1,.42,1.43.35,1.11.53,1.66.3.92.46,1.38c.29.84.61,1.68.94,2.52.21.53.44,1.06.66,1.59s.47,1.14.73,1.71l.68,1.46c.25.51.5,1,.76,1.55s.5,1,.77,1.48.56,1,.85,1.55.53,1,.82,1.43.75,1.24,1.14,1.86l.62,1C883,585.82,912.19,608.62,955.51,629.82Z" transform="translate(-854.13 -448.72)"/><path class="cls-4" d="M862.87,508.72a72.66,72.66,0,0,0,21.53,24.93,71.23,71.23,0,0,1,8.91-58.56,72.05,72.05,0,0,1-5.71-14.5c-.42-1.57-.76-3.13-1-4.68l-.22.14-1.28.83-.41.27-1.21.84-.43.31-1.15.87-.45.34-1.12.91-.44.36-1.12,1-.42.36-1.22,1.13-.27.25c-.48.46-1,.93-1.42,1.41-.22.22-.43.45-.64.67l-.75.79-.76.84-.59.67c-.27.31-.54.63-.8.95l-.51.61c-.28.34-.55.68-.82,1l-.45.58-.84,1.1-.39.54c-.28.39-.57.79-.85,1.2l-.32.46c-.29.44-.59.87-.88,1.32l-.21.33c-.32.49-.63,1-.94,1.5h0c-.71,1.17-1.4,2.38-2.06,3.61l-.31.59c-.32.61-.63,1.23-.94,1.86-.16.33-.32.65-.48,1-.39.82-.77,1.66-1.13,2.51l-.27.64q-.5,1.19-1,2.4l-.25.66c-.36,1-.71,2-1,3l-.06.21A50.05,50.05,0,0,0,862.87,508.72Z" transform="translate(-854.13 -448.72)"/><path class="cls-4" d="M894.36,458.77a63.87,63.87,0,0,0,3.5,9.68,91.65,91.65,0,0,1,18.8-18.63l.75-.53h0c-1.18-.2-2.33-.34-3.45-.43h-.16c-.47,0-.93-.06-1.38-.08l-.36,0-1.48,0h-.48c-.65,0-1.29,0-1.93.08l-.61,0-1.39.13-.65.07c-.5.06-1,.14-1.5.22l-.45.07q-1,.17-2,.39l-.25,0-1.72.43-.49.14c-.52.15-1,.3-1.55.47l-.43.14c-1.32.44-2.63.93-3.92,1.49l-.07,0A47.91,47.91,0,0,0,894.36,458.77Z" transform="translate(-854.13 -448.72)"/></svg>